<svg xmlns="http://www.w3.org/2000/svg" viewBox="0 0 980 540" font-family="IBM Plex Mono,ui-monospace,Menlo,monospace">
<defs><filter id="glow" x="-20%" y="-20%" width="140%" height="140%"><feGaussianBlur stdDeviation="2.4" result="b"/><feMerge><feMergeNode in="b"/><feMergeNode in="SourceGraphic"/></feMerge></filter><linearGradient id="ph" x1="0" y1="0" x2="0" y2="1"><stop offset="0" stop-color="#0E9F8C" stop-opacity=".14"/><stop offset="1" stop-color="#0E9F8C" stop-opacity="0"/></linearGradient></defs>
<rect width="980" height="540" fill="#FFFFFF"/>
<text x="490.0" y="28" text-anchor="middle" font-size="15" font-weight="600" font-family="Space Grotesk,system-ui" fill="#1B2530">mega-evm-v2-auto-20260722-2 · speedup % vs cumulative tokens</text>
<line x1="78" y1="430.0" x2="858" y2="430.0" stroke="#EAEEF3"/>
<text x="70" y="434.0" text-anchor="end" font-size="11" fill="#8693A1">0%</text>
<line x1="78" y1="355.2" x2="858" y2="355.2" stroke="#EAEEF3"/>
<text x="70" y="359.2" text-anchor="end" font-size="11" fill="#8693A1">19%</text>
<line x1="78" y1="280.4" x2="858" y2="280.4" stroke="#EAEEF3"/>
<text x="70" y="284.4" text-anchor="end" font-size="11" fill="#8693A1">38%</text>
<line x1="78" y1="205.6" x2="858" y2="205.6" stroke="#EAEEF3"/>
<text x="70" y="209.6" text-anchor="end" font-size="11" fill="#8693A1">57%</text>
<line x1="78" y1="130.8" x2="858" y2="130.8" stroke="#EAEEF3"/>
<text x="70" y="134.8" text-anchor="end" font-size="11" fill="#8693A1">75%</text>
<line x1="78" y1="56.0" x2="858" y2="56.0" stroke="#EAEEF3"/>
<text x="70" y="60.0" text-anchor="end" font-size="11" fill="#8693A1">94%</text>
<line x1="78.0" y1="430" x2="78.0" y2="435" stroke="#C5CFDA"/>
<text x="78.0" y="449" text-anchor="middle" font-size="11" fill="#566472">0</text>
<line x1="208.0" y1="430" x2="208.0" y2="435" stroke="#C5CFDA"/>
<text x="208.0" y="449" text-anchor="middle" font-size="11" fill="#566472">0</text>
<line x1="338.0" y1="430" x2="338.0" y2="435" stroke="#C5CFDA"/>
<text x="338.0" y="449" text-anchor="middle" font-size="11" fill="#566472">0</text>
<line x1="468.0" y1="430" x2="468.0" y2="435" stroke="#C5CFDA"/>
<text x="468.0" y="449" text-anchor="middle" font-size="11" fill="#566472">0</text>
<line x1="598.0" y1="430" x2="598.0" y2="435" stroke="#C5CFDA"/>
<text x="598.0" y="449" text-anchor="middle" font-size="11" fill="#566472">1</text>
<line x1="728.0" y1="430" x2="728.0" y2="435" stroke="#C5CFDA"/>
<text x="728.0" y="449" text-anchor="middle" font-size="11" fill="#566472">1</text>
<line x1="858.0" y1="430" x2="858.0" y2="435" stroke="#C5CFDA"/>
<text x="858.0" y="449" text-anchor="middle" font-size="11" fill="#566472">1</text>
<line x1="78" y1="56" x2="78" y2="430" stroke="#C5CFDA"/>
<line x1="78" y1="430" x2="858" y2="430" stroke="#C5CFDA"/>
<text x="22" y="243" font-size="11.5" fill="#566472" transform="rotate(-90 22 243)" text-anchor="middle">speedup (% faster)</text>
<text x="468" y="530" text-anchor="middle" font-size="11.5" fill="#566472">cumulative output tokens</text>
<line x1="78" y1="430.0" x2="858" y2="430.0" stroke="#D5DEE8" stroke-width="1.4"/>
<line x1="78" y1="113.1" x2="858" y2="113.1" stroke="#C5CFDA" stroke-width="1.4" stroke-dasharray="8,5"/>
<text x="854" y="107.1" text-anchor="end" font-size="11" fill="#8693A1">theoretical ceiling ~80% (everything outside the 20% untouchable floor)</text>
<rect x="83" y="56" width="306" height="76" rx="3" fill="#FFFFFF" opacity="0.94" stroke="#E2E8F0"/>
<line x1="92" y1="68" x2="112" y2="68" stroke="#0E9F8C" stroke-width="2.6"/>
<text x="120" y="72" font-size="11" fill="#1B2530">running best (compounded accepts)</text>
<circle cx="102" cy="85" r="3.6" fill="#8693A1"/>
<text x="120" y="89" font-size="11" fill="#1B2530">candidates (incl. regressions) · 0</text>
<path d="M98,98.5 l7,7 M105,98.5 l-7,7" stroke="#B7C2CE" stroke-width="1.6"/>
<text x="120" y="106" font-size="11" fill="#1B2530">off-spec: apply/build/verify failed (not scored)</text>
<line x1="92" y1="119" x2="112" y2="119" stroke="#C5CFDA" stroke-width="1.5" stroke-dasharray="8,5"/>
<text x="120" y="123" font-size="11" fill="#1B2530">theoretical ceiling (outside the untouchable floor)</text>
</svg>
